<svg width="128" height="24" viewBox="0 0 128 24" fill="none" xmlns="http://www.w3.org/2000/svg">
<path fill-rule="evenodd" clip-rule="evenodd" d="M26 8.49634H0V4.76987C0 2.13598 2.01334 0 4.496 0H26V8.49634ZM21.504 24.0008H0V15.5028H26V19.2309C26 21.8648 23.9867 24.0008 21.504 24.0008Z" fill="white"/>
<path fill-rule="evenodd" clip-rule="evenodd" d="M49.2734 2.1814H52.8304V5.16009H57.9653V8.61586H52.8317V17.1335C52.8317 17.5203 53.0596 17.8524 53.4015 18.0045C53.5306 18.0591 53.6719 18.0871 53.8147 18.0871H57.9638V21.5459H54.0426C51.4097 21.5459 49.2752 19.4718 49.2752 16.9136V8.61734H46.7092V5.16304H49.2734V2.1814ZM84.5544 12.7466C84.5544 12.4248 84.5392 12.1074 84.5028 11.8004C84.4025 10.7789 84.126 9.81638 83.6748 8.90409C83.0868 7.71871 82.2087 6.7518 81.0374 6.00484C79.86 5.25789 78.4 4.88736 76.6407 4.88736C75.2885 4.88736 74.0989 5.11617 73.0795 5.57675C72.0586 6.04027 71.2139 6.6588 70.5469 7.43085C69.88 8.20733 69.3817 9.08419 69.0505 10.057C68.853 10.6283 68.7132 11.2084 68.6327 11.8004C68.4154 13.3415 68.6935 15.2562 68.6935 15.2562C68.7725 15.7153 68.894 16.1729 69.0505 16.6216C69.3817 17.593 69.8785 18.4669 70.5469 19.2419C71.2139 20.0184 72.0738 20.6428 73.1251 21.1122C74.1749 21.5861 75.4101 21.8193 76.8214 21.8193C78.1386 21.8193 79.3085 21.6038 80.3385 21.1713C81.3746 20.7402 82.2239 20.1217 82.9015 19.3172C83.5791 18.5112 84.0257 17.5694 84.2521 16.4903H80.9477C80.7852 17.1383 80.3385 17.7007 79.6108 18.1849C78.8876 18.6617 77.9533 18.9068 76.823 18.9068C75.6942 18.9068 74.7644 18.6617 74.0351 18.1849C73.3059 17.7007 72.7726 17.0468 72.4323 16.2113C72.3062 15.9101 72.2014 15.5868 72.127 15.2547H84.556V12.7466H84.5544ZM72.0434 11.8004C72.1285 11.3118 72.2546 10.863 72.4308 10.4526C72.7711 9.62595 73.2937 8.98233 74.0032 8.50995C74.7112 8.03609 75.5909 7.80137 76.6407 7.80137C77.651 7.80137 78.4896 8.01099 79.1581 8.43761C79.8265 8.86128 80.3279 9.45766 80.6743 10.2341C80.8809 10.7021 81.0252 11.2247 81.1057 11.8019H72.0434V11.8004ZM45.0732 8.61734H37.094C36.2266 8.61734 35.5429 9.29491 35.5429 10.1245C35.5429 10.9542 36.225 11.6317 37.094 11.6317H40.3832C43.1862 11.6317 45.4773 13.8446 45.4773 16.5829C45.4773 19.3212 43.1862 21.5473 40.3832 21.5473H32.4041V18.0886H40.3832C41.237 18.0886 41.9192 17.411 41.9192 16.5814C41.9192 15.7518 41.237 15.0742 40.3832 15.0742H37.094C34.2774 15.0742 32 12.8481 32 10.1231C32 7.38619 34.2774 5.17338 37.094 5.17338H37.9053V5.16009H45.0732V8.61734ZM68.5482 5.16435H67.907C66.0049 5.16435 64.5525 5.77992 63.5498 7.02436C63.404 7.20445 63.2718 7.39931 63.1472 7.60303V5.16435H59.5891V21.5427H62.1369H63.1396H63.1472V12.4981C63.1822 11.2773 63.5407 10.331 64.2365 9.66675C64.9627 8.96703 65.9928 8.6216 67.3328 8.6216H68.5482V5.16435ZM125.478 6.00873C126.316 6.57559 126.95 7.39045 127.366 8.45922C127.788 9.53241 128 10.8462 128 12.4036V21.5472H124.482V11.9061C124.482 10.7591 124.191 9.86603 123.598 9.22094C123.006 8.57732 122.193 8.25993 121.152 8.25993C120.068 8.25993 119.208 8.59208 118.565 9.26522C117.928 9.93394 117.606 10.8654 117.606 12.0523V21.5486H114.059V11.9076C114.059 10.7606 113.767 9.86751 113.19 9.22241C112.859 8.85632 112.456 8.59798 111.979 8.44593C111.611 8.31898 111.206 8.25993 110.753 8.25993C109.673 8.25993 108.808 8.59208 108.155 9.26522C107.503 9.93394 107.181 10.8654 107.181 12.0523V21.5457H103.619V5.21454H106.457H106.894V8.1005C106.981 7.91008 107.076 7.72998 107.181 7.55431C107.553 6.91512 108.024 6.40288 108.608 6.00726C109.061 5.70021 109.573 5.48026 110.145 5.33411C110.188 5.32452 110.229 5.31603 110.271 5.30755C110.312 5.29906 110.353 5.29057 110.396 5.28097C110.416 5.27794 110.437 5.27453 110.458 5.27112C110.508 5.26287 110.558 5.25458 110.607 5.25145C110.919 5.1983 111.245 5.16878 111.587 5.16878C111.628 5.16435 111.672 5.16435 111.718 5.16435H111.868H111.938C112.158 5.16435 112.369 5.17764 112.581 5.20273C113.53 5.28097 114.334 5.55407 115.007 6.00873C115.835 6.57559 116.458 7.39045 116.865 8.45922C116.904 8.55812 116.935 8.66421 116.966 8.76896L116.966 8.76939C116.979 8.81459 116.993 8.85954 117.006 8.90355C117.026 8.84467 117.045 8.7841 117.064 8.7235L117.064 8.72313C117.092 8.63346 117.119 8.54371 117.152 8.45922C117.574 7.39045 118.208 6.57559 119.047 6.00873C119.885 5.44188 120.93 5.16435 122.172 5.16435H122.322C123.583 5.16435 124.633 5.44188 125.478 6.00873ZM98.7669 7.45832V5.16727H101.828V21.5486H98.773V19.2413C98.7457 19.29 98.7153 19.3387 98.6834 19.3875C98.2671 20.0104 97.4421 20.6422 96.6597 21.0748C94.9141 22.1096 91.2071 22.0756 89.4752 20.8917C86.9897 19.507 85.7895 16.2432 85.9201 13.3542C85.7895 10.4653 86.9882 7.20147 89.4752 5.81679C91.2102 4.63288 94.9111 4.60041 96.6597 5.63227C97.4391 6.06479 98.2641 6.69365 98.6788 7.31513C98.7092 7.36385 98.7381 7.41108 98.7669 7.45832ZM90.6025 17.3547C92.2007 19.2384 95.8241 19.2782 97.4376 17.3916C98.3461 16.4395 98.7973 14.8334 98.7472 13.3602C98.8004 11.8854 98.3491 10.2675 97.4376 9.3139C95.8241 7.42585 92.2007 7.46718 90.6025 9.34933C89.8444 10.1819 89.3992 11.3407 89.3126 12.6634C89.1972 14.3433 89.4949 16.1782 90.6025 17.3547Z" fill="white"/>
</svg>
